<svg xmlns="http://www.w3.org/2000/svg" viewBox="0 0 1440 90" preserveAspectRatio="none"><path  d="M0,0 L1440,0 L1440,37.1 L1419,43.4 L1413,45.4 L1403,49.2 L1391,63.7 L1381,68.7 L1375,42.7 L1367,50.8 L1358,50.6 L1346,46.2 L1334,50.1 L1325,50.7 L1311,37.2 L1305,48.3 L1294,44.0 L1281,44.4 L1271,39.8 L1263,50.6 L1256,67.1 L1246,41.7 L1240,40.7 L1233,71.9 L1226,68.0 L1218,40.9 L1211,45.0 L1197,42.7 L1187,48.9 L1175,40.8 L1167,40.8 L1157,50.6 L1148,69.9 L1138,42.4 L1132,41.7 L1126,41.5 L1115,42.7 L1101,39.3 L1092,49.4 L1080,40.1 L1067,39.0 L1056,50.2 L1048,48.0 L1038,43.0 L1029,42.5 L1022,48.8 L1013,49.9 L1003,49.3 L989,44.1 L976,43.3 L966,45.5 L952,43.2 L945,37.4 L931,47.8 L925,62.4 L918,44.4 L904,44.8 L897,39.4 L889,45.5 L881,37.3 L867,38.8 L853,42.9 L839,46.3 L826,49.7 L820,44.6 L810,40.4 L796,37.4 L787,50.8 L775,44.4 L768,67.5 L754,46.2 L741,48.3 L728,37.4 L720,47.1 L713,43.5 L701,38.2 L690,49.4 L677,48.0 L665,48.7 L658,43.7 L652,39.9 L641,38.4 L632,50.4 L621,43.3 L610,40.6 L597,50.9 L591,39.8 L582,48.3 L573,45.9 L562,44.5 L553,49.7 L542,46.7 L535,47.6 L529,42.1 L515,44.2 L507,47.4 L496,41.4 L483,50.9 L470,43.6 L459,45.9 L451,49.2 L444,50.3 L437,37.0 L430,38.5 L422,37.9 L413,43.7 L406,42.5 L392,43.4 L386,46.7 L378,42.2 L364,40.9 L354,43.8 L348,39.1 L340,50.4 L328,50.8 L316,49.1 L304,40.9 L290,38.1 L277,42.6 L268,47.8 L259,45.6 L251,37.3 L240,41.0 L227,37.8 L220,50.2 L213,45.1 L200,41.8 L189,69.4 L183,39.1 L172,44.2 L165,41.0 L152,44.4 L142,46.8 L134,42.1 L121,43.0 L107,45.7 L101,38.4 L90,45.1 L83,44.8 L73,42.9 L63,37.7 L54,45.1 L48,45.8 L39,48.6 L33,40.4 L26,37.5 L17,45.2 L6,38.0 L0,41.5 Z" fill="#efe7d8"/></svg>