<svg xmlns="http://www.w3.org/2000/svg" viewBox="0 0 1440 90" preserveAspectRatio="none"><path transform="translate(0,90) scale(1,-1)" d="M0,0 L1440,0 L1440,40.3 L1427,39.8 L1417,44.9 L1407,47.9 L1400,48.9 L1386,45.7 L1373,39.4 L1360,44.0 L1348,45.7 L1338,49.4 L1326,44.6 L1312,51.0 L1304,44.2 L1297,43.5 L1286,45.5 L1278,48.2 L1272,38.9 L1259,48.1 L1247,47.0 L1234,37.3 L1227,49.9 L1216,40.7 L1210,42.1 L1199,40.6 L1193,48.6 L1181,37.4 L1168,41.5 L1159,42.2 L1150,38.2 L1138,47.8 L1127,50.5 L1113,42.9 L1102,53.8 L1089,48.7 L1077,68.1 L1063,41.6 L1055,47.3 L1044,54.0 L1032,57.3 L1020,50.3 L1014,49.6 L1006,38.5 L996,40.2 L987,43.9 L978,47.3 L968,46.6 L957,46.7 L951,50.0 L939,38.1 L927,37.8 L917,37.4 L908,43.7 L899,40.9 L886,37.1 L880,42.4 L871,41.2 L864,46.8 L852,45.8 L844,46.0 L838,48.0 L832,38.2 L819,44.3 L811,48.0 L802,49.0 L788,42.5 L781,50.6 L768,38.8 L762,48.9 L752,42.6 L740,38.3 L731,38.8 L720,56.2 L710,47.4 L698,47.5 L692,48.3 L682,55.6 L674,44.7 L666,51.0 L655,44.7 L642,64.0 L634,44.8 L621,42.7 L611,40.9 L600,38.8 L586,43.8 L576,43.3 L564,64.8 L550,49.8 L538,49.4 L526,41.4 L512,40.5 L504,48.7 L498,49.0 L488,42.0 L481,37.9 L470,49.6 L464,38.7 L452,70.8 L445,42.8 L437,46.5 L424,42.5 L411,40.2 L400,40.9 L386,50.3 L376,60.0 L367,42.4 L357,50.6 L343,37.2 L330,39.8 L316,43.5 L303,46.9 L293,46.7 L286,37.8 L273,45.7 L263,45.4 L256,45.6 L250,49.7 L237,43.9 L224,40.2 L215,54.8 L202,68.0 L188,66.6 L179,45.8 L173,42.3 L166,58.4 L157,48.6 L151,45.0 L137,39.0 L123,45.8 L109,37.6 L101,39.1 L88,47.7 L76,46.2 L68,38.2 L59,37.3 L47,39.0 L40,58.3 L31,40.9 L18,58.1 L9,37.5 L0,50.6 Z" fill="#efe7d8"/></svg>